
        <svg xmlns="http://www.w3.org/2000/svg" xmlns:xlink="http://www.w3.org/1999/xlink" version="1.1" width="3230.769230769231" 
        height="1350" viewBox="0 0 3230.769230769231 1350">
			<rect fill="#ffffff" width="3230.769230769231" height="1350"/>
			<g transform="scale(11.538461538461538) translate(10, 10)">
				<defs id="SvgjsDefs1229"></defs><g id="SvgjsG1230" featureKey="symbolContainer" transform="matrix(1,0,0,1,0,0)" fill="#a12559"><rect xmlns="http://www.w3.org/2000/svg" width="140" height="97" rx="10" ry="10"></rect></g><g id="SvgjsG1231" featureKey="uHI19F-0" transform="matrix(1.1404120107296454,0,0,1.1404120107296454,12.979400007308548,-8.741972559880068)" fill="#ffffff"><g xmlns="http://www.w3.org/2000/svg" transform="translate(0,-952.36218)"><path style="text-indent:0;text-transform:none;direction:ltr;block-progression:tb;baseline-shift:baseline;color:;enable-background:accumulate;" d="m 53.593797,977.56534 -13,47.99996 5.8124,1.5937 13,-47.99991 -5.8124,-1.59375 z m -20.4688,3.4375 -23.9999995,18.99996 -2.9688,2.375 2.9688,2.3438 23.9999995,19 3.75,-4.7188 -21.031199,-16.625 21.031199,-16.65622 -3.75,-4.71875 z m 33.750001,0 -3.750001,4.71875 21.031206,16.65621 -21.031206,16.625 3.750001,4.7188 24.000004,-19 2.968801,-2.3438 -2.968801,-2.375 -24.000004,-18.99996 z" fill="#ffffff" fill-opacity="1" stroke="none" marker="none" visibility="visible" display="inline" overflow="visible"></path></g></g><g id="SvgjsG1232" featureKey="8FbbNb-0" transform="matrix(1.6334530873250361,0,0,1.6334530873250361,157.7785051409307,28.028748746919952)" fill="#5f1854"><path d="M3.16 10.52 l0 5.68 c0 0.74666 0.19666 1.3267 0.59 1.74 s0.91668 0.62 1.57 0.62 c0.84 0 1.49 -0.27666 1.95 -0.83 s0.69 -1.3033 0.69 -2.25 l0 -4.96 l1.8 0 l0 9.48 l-1.8 0 l0 -1.46 l-0.04 0 c-0.25334 0.53334 -0.66668 0.95 -1.24 1.25 s-1.2 0.45 -1.88 0.45 c-1.0533 0 -1.89 -0.32666 -2.51 -0.98 s-0.93 -1.5067 -0.93 -2.56 l0 -6.18 l1.8 0 z M15.68 10.28 c0.72 0 1.3633 0.13338 1.93 0.40004 s1.0033 0.65332 1.31 1.16 l-1.4 1.06 c-0.53334 -0.62666 -1.18 -0.94 -1.94 -0.94 c-0.45334 0 -0.83 0.1 -1.13 0.3 s-0.45 0.45334 -0.45 0.76 c0 0.66666 0.62 1.12 1.86 1.36 c1.2133 0.22666 2.07 0.56 2.57 1 s0.75 1.0667 0.75 1.88 c0 0.92 -0.35 1.6433 -1.05 2.17 s-1.6367 0.79666 -2.81 0.81 c-0.88 0 -1.6033 -0.13666 -2.17 -0.41 s-1.0567 -0.69668 -1.47 -1.27 l1.36 -1.12 c0.72 0.74666 1.4867 1.12 2.3 1.12 c0.53334 0 0.98668 -0.10666 1.36 -0.32 s0.56 -0.50668 0.56 -0.88002 c0 -0.65334 -0.6 -1.1067 -1.8 -1.36 c-1.3333 -0.26666 -2.23 -0.62332 -2.69 -1.07 s-0.69 -1.0233 -0.69 -1.73 c0 -0.88 0.34 -1.5833 1.02 -2.11 s1.54 -0.79666 2.58 -0.81 z M25.740000000000002 5.48 c1.32 0 2.3866 0.34664 3.2 1.04 s1.2333 1.6533 1.26 2.88 c0 0.76 -0.19334 1.48 -0.58 2.16 s-1 1.42 -1.84 2.22 l-4.7 4.54 l7.12 0 l0 1.68 l-9.28 0 l0 -2.04 l5.52 -5.48 c0.48 -0.46666 0.88666 -0.95332 1.22 -1.46 s0.5 -1.04 0.5 -1.6 c0 -0.66666 -0.23 -1.21 -0.69 -1.63 s-1.0433 -0.63 -1.75 -0.63 s-1.2833 0.19334 -1.73 0.58 s-0.73 0.92 -0.85 1.6 l-2.08 -0.18 c0.18666 -1.1867 0.69 -2.0966 1.51 -2.73 s1.8767 -0.95 3.17 -0.95 z M34.28 10.52 l0 5.68 c0 0.74666 0.19666 1.3267 0.59 1.74 s0.91668 0.62 1.57 0.62 c0.84 0 1.49 -0.27666 1.95 -0.83 s0.69 -1.3033 0.69 -2.25 l0 -4.96 l1.8 0 l0 9.48 l-1.8 0 l0 -1.46 l-0.04 0 c-0.25334 0.53334 -0.66668 0.95 -1.24 1.25 s-1.2 0.45 -1.88 0.45 c-1.0533 0 -1.89 -0.32666 -2.51 -0.98 s-0.93 -1.5067 -0.93 -2.56 l0 -6.18 l1.8 0 z M48.36 10.28 c1.3733 0 2.36 0.58666 2.96 1.76 c0.30666 -0.56 0.72666 -0.99334 1.26 -1.3 s1.1133 -0.46 1.74 -0.46 c2.3866 0 3.5866 1.3733 3.6 4.12 l0 5.6 l-1.8 0 l0 -5.38 c0 -0.93334 -0.16666 -1.61 -0.5 -2.03 s-0.84668 -0.63 -1.54 -0.63 c-0.81334 0 -1.42 0.24666 -1.82 0.74 s-0.6 1.1733 -0.6 2.04 l0 5.26 l-1.8 0 l0 -5.1 c0 -1.12 -0.16 -1.89 -0.48 -2.31 s-0.82666 -0.63 -1.52 -0.63 c-0.74666 0 -1.3433 0.28666 -1.79 0.86 s-0.67 1.3 -0.67 2.18 l0 5 l-1.8 0 l0 -9.48 l1.68 0 l0 1.48 l0.04 0 c0.2 -0.46666 0.59666 -0.87 1.19 -1.21 s1.21 -0.51 1.85 -0.51 z M62.58 4.880000000000001 l0 15.12 l-1.8 0 l0 -15.12 l1.8 0 z"></path></g>
			</g>
		</svg>
	